<svg width="47.28" height="61.96" viewBox="0 0 47.28 61.96" xmlns="http://www.w3.org/2000/svg" xmlns:xlink="http://www.w3.org/1999/xlink" overflow="visible"><defs></defs><path d="M1.39 26.01C6.56 21.37 10.85 18.85 16.6 16.16 19.1 14.99 18.51 13.64 17.61 12.97 16.82 12.38 16.48 13.05 13.52 12.32 11.94 11.94 10.63 10.79 9.62 9.03 8.06 6.3 8.92 2.56 11.67 0.91 14.48-0.78 18.49-0.11 20.19 2.96 22.49 7.11 19.8 9.1 20.9 10.93 21.99 12.76 23.94 13.1 26.98 14.63 28.8 15.54 40.86 21.6 41.19 21.76 46.88 24.51 48.11 28.83 46.82 33.15 45.8 36.58 44.97 39.15 43.2 43.89 41.78 47.69 42.04 49.77 42.08 58.94 42.1 62.9 37.31 62.97 37.21 58.98 36.89 47.05 37.36 45.74 39.14 40.11 41.22 33.55 43.05 30.22 39.02 27.47 35.55 25.1 29.19 21.92 24.07 19.81 22.44 19.14 20.46 19.01 16.57 20.88 10.7 23.7 7.1 26.77 3.83 29.63 1.11 32.01-1.79 28.87 1.39 26.01Z" fill="#1E1718" fill-rule="evenodd" clip-rule="evenodd"/></svg>